<svg width="60" height="60" viewBox="0 0 60 60" fill="none" xmlns="http://www.w3.org/2000/svg">
<rect width="60" height="60" fill="white"/>
<rect width="60" height="60" fill="white"/>
<circle cx="29.9999" cy="30" r="25.9091" fill="black" fill-opacity="0.09"/>
<circle cx="29.9999" cy="30" r="25.6591" stroke="#2869BF" stroke-opacity="0.04" stroke-width="0.5"/>
<circle cx="30.0001" cy="30" r="16.3636" fill="black" fill-opacity="0.09"/>
<circle cx="30.0001" cy="30" r="16.1136" stroke="#2869BF" stroke-opacity="0.04" stroke-width="0.5"/>
<path fill-rule="evenodd" clip-rule="evenodd" d="M30.25 0H29.75V29.75H0V30.25H29.75V60H30.25V30.25H60V29.75H30.25V0Z" fill="#6277A1" fill-opacity="0.1"/>
<rect width="60" height="60" fill="white"/>
<rect width="60" height="60" fill="white"/>
<circle cx="29.9999" cy="30" r="25.9091" fill="black" fill-opacity="0.09"/>
<circle cx="29.9999" cy="30" r="25.6591" stroke="#2869BF" stroke-opacity="0.04" stroke-width="0.5"/>
<circle cx="30.0001" cy="30" r="16.3636" fill="black" fill-opacity="0.09"/>
<circle cx="30.0001" cy="30" r="16.1136" stroke="#2869BF" stroke-opacity="0.04" stroke-width="0.5"/>
<path fill-rule="evenodd" clip-rule="evenodd" d="M30.25 0H29.75V29.75H0V30.25H29.75V60H30.25V30.25H60V29.75H30.25V0Z" fill="#6277A1" fill-opacity="0.1"/>
<rect width="60" height="60" fill="#003832"/>
<path d="M30.0012 22.5524C30.0012 21.8764 30.4961 21.3022 31.1647 21.2025L39.0278 20.0296C39.1595 20.01 39.2934 20.0097 39.4252 20.0289L47.5357 21.2064C48.2067 21.3038 48.7044 21.879 48.7044 22.557V23.9428C48.7044 24.6966 48.0934 25.3077 47.3396 25.3077L31.366 25.3077C30.6123 25.3077 30.0012 24.6966 30.0012 23.9428V22.5524Z" fill="#77A83F"/>
<rect x="30" y="27.0769" width="5.05492" height="13.1428" rx="1.36483" fill="#079326"/>
<rect x="36.824" y="27.0769" width="5.05492" height="13.1428" rx="1.36483" fill="#68A93D"/>
<rect x="43.6482" y="27.0769" width="5.05492" height="13.1428" rx="1.36483" fill="#CCFFB4"/>
<path d="M11.317 39V21.5677H17.5787C19.8216 21.5677 21.5258 21.9788 22.6911 22.8009C23.8644 23.623 24.4511 24.8163 24.4511 26.3807C24.4511 27.2827 24.2436 28.0529 23.8285 28.6915C23.4135 29.33 22.8028 29.8009 21.9967 30.1043C22.9066 30.3437 23.605 30.7907 24.0919 31.4452C24.5788 32.0997 24.8222 32.8979 24.8222 33.8398C24.8222 35.5479 24.2795 36.8329 23.194 37.695C22.1164 38.549 20.5161 38.984 18.3929 39H11.317ZM15.5194 31.5889V35.7674H18.2732C19.0314 35.7674 19.6141 35.5958 20.0212 35.2525C20.4283 34.9013 20.6318 34.4105 20.6318 33.7799C20.6318 32.3272 19.9094 31.5969 18.4647 31.5889H15.5194ZM15.5194 28.8351H17.7104C18.6284 28.8272 19.2829 28.6595 19.674 28.3323C20.0651 28.005 20.2606 27.5221 20.2606 26.8836C20.2606 26.1493 20.0491 25.6225 19.6261 25.3032C19.203 24.9759 18.5206 24.8123 17.5787 24.8123H15.5194V28.8351Z" fill="#77A83F"/>
</svg>
