<svg width="24" height="24" viewBox="0 0 24 24" fill="none" xmlns="http://www.w3.org/2000/svg">
<path fill-rule="evenodd" clip-rule="evenodd" d="M12 24C18.6274 24 24 18.6274 24 12C24 5.37258 18.6274 0 12 0C5.37258 0 0 5.37258 0 12C0 18.6274 5.37258 24 12 24ZM6 7.5C6 6.94771 6.44772 6.5 7 6.5H17C17.5523 6.5 18 6.94772 18 7.5V16.5C18 17.0523 17.5523 17.5 17 17.5H7C6.44771 17.5 6 17.0523 6 16.5V7.5ZM7.5 12.9C7.5 12.6791 7.67909 12.5 7.9 12.5H16.1C16.3209 12.5 16.5 12.6791 16.5 12.9V13.1C16.5 13.3209 16.3209 13.5 16.1 13.5H7.9C7.67909 13.5 7.5 13.3209 7.5 13.1V12.9ZM13.9 8.5C13.6791 8.5 13.5 8.67909 13.5 8.9V9.3C13.5 9.52091 13.6791 9.7 13.9 9.7H16.1C16.3209 9.7 16.5 9.52091 16.5 9.3V8.9C16.5 8.67909 16.3209 8.5 16.1 8.5H13.9ZM7.5 14.9C7.5 14.6791 7.67909 14.5 7.9 14.5H16.1C16.3209 14.5 16.5 14.6791 16.5 14.9V15.1C16.5 15.3209 16.3209 15.5 16.1 15.5H7.9C7.67909 15.5 7.5 15.3209 7.5 15.1V14.9Z" fill="#989792"/>
</svg>
