<?xml version="1.0" encoding="UTF-8" standalone="no"?>
<svg
   xmlns:dc="http://purl.org/dc/elements/1.1/"
   xmlns:cc="http://creativecommons.org/ns#"
   xmlns:rdf="http://www.w3.org/1999/02/22-rdf-syntax-ns#"
   xmlns:svg="http://www.w3.org/2000/svg"
   xmlns="http://www.w3.org/2000/svg"
   width="12"
   height="11"
   viewBox="0 0 12 11"
   fill="none"
   version="1.1"
   id="svg12">
  <metadata
     id="metadata18">
    <rdf:RDF>
      <cc:Work
         rdf:about="">
        <dc:format>image/svg+xml</dc:format>
        <dc:type
           rdf:resource="http://purl.org/dc/dcmitype/StillImage" />
        <dc:title></dc:title>
      </cc:Work>
    </rdf:RDF>
  </metadata>
  <defs
     id="defs16" />
  <path
     fill-rule="evenodd"
     clip-rule="evenodd"
     d="M 3.5,2.75 C 3.2238575,2.75 3,2.9738575 3,3.25 v 4.5 c 0,0.27615 0.2238575,0.5 0.5,0.5 h 5 C 8.77615,8.25 9,8.02615 9,7.75 V 3.25 C 9,2.9738575 8.77615,2.75 8.5,2.75 Z m 0.45,3 c -0.110455,0 -0.2,0.089545 -0.2,0.2 v 0.1 c 0,0.110455 0.089545,0.2 0.2,0.2 h 4.1 c 0.11045,0 0.2,-0.089545 0.2,-0.2 v -0.1 c 0,-0.110455 -0.08955,-0.2 -0.2,-0.2 z m 2.8,-1.8 c 0,-0.110455 0.089545,-0.2 0.2,-0.2 h 1.1 c 0.11045,0 0.2,0.089545 0.2,0.2 v 0.2 c 0,0.110455 -0.08955,0.2 -0.2,0.2 h -1.1 c -0.110455,0 -0.2,-0.089545 -0.2,-0.2 z m -2.8,2.8 c -0.110455,0 -0.2,0.089545 -0.2,0.2 v 0.1 c 0,0.110455 0.089545,0.2 0.2,0.2 h 4.1 c 0.11045,0 0.2,-0.089545 0.2,-0.2 v -0.1 c 0,-0.110455 -0.08955,-0.2 -0.2,-0.2 z"
     fill="#989792"
     id="path10"
     style="stroke-width:0.5" />
</svg>
