<svg width="50" height="38" viewBox="0 0 50 38" fill="none" xmlns="http://www.w3.org/2000/svg">
<path fill-rule="evenodd" clip-rule="evenodd" d="M1.27928 0C0.572751 0 0 0.572751 0 1.27928V7.67565V23.8798C0 24.5863 0.572751 25.1591 1.27928 25.1591H5.22163V22.6005H2.55855V7.67565V2.55855H36.0286V4.26425H38.5871V1.27928C38.5871 0.572751 38.0144 0 37.3079 0H1.27928Z" fill="black"/>
<path fill-rule="evenodd" clip-rule="evenodd" d="M5.22166 3.83789H40.9305C41.2698 3.83789 41.5952 3.97267 41.8351 4.21258C42.075 4.45249 42.2098 4.77788 42.2098 5.11717V18.5403C41.3951 18.3025 40.5384 18.1384 39.6512 18.0576V6.39644H6.50093V26.3847H26.9559C26.9041 26.7505 26.8775 27.1227 26.8775 27.5C26.8775 27.9907 26.9225 28.4726 27.0093 28.9432H5.22166C4.88237 28.9432 4.55699 28.8085 4.31707 28.5686C4.07716 28.3286 3.94238 28.0033 3.94238 27.664V5.11717C3.94238 4.77788 4.07716 4.45249 4.31707 4.21258C4.55699 3.97267 4.88237 3.83789 5.22166 3.83789ZM27.1983 22.5612C25.9781 23.3765 24.5436 23.8116 23.0761 23.8116C21.1091 23.8089 19.2234 23.0263 17.8325 21.6354C16.4416 20.2446 15.659 18.3589 15.6563 16.3918C15.6563 14.9244 16.0914 13.4898 16.9067 12.2696C17.722 11.0494 18.8809 10.0984 20.2366 9.53685C21.5924 8.97526 23.0843 8.82832 24.5236 9.11462C25.9629 9.40091 27.285 10.1076 28.3227 11.1453C29.3604 12.1829 30.067 13.505 30.3533 14.9443C30.6396 16.3836 30.4927 17.8755 29.9311 19.2313C29.3695 20.5871 28.4185 21.7459 27.1983 22.5612ZM25.7768 12.3499C24.9774 11.8157 24.0375 11.5306 23.0761 11.5306V11.5289C21.787 11.5305 20.5512 12.0434 19.6398 12.9551C18.7284 13.8668 18.216 15.1028 18.2148 16.3918C18.2148 17.3533 18.4999 18.2932 19.0341 19.0926C19.5683 19.892 20.3275 20.5151 21.2158 20.8831C22.104 21.251 23.0815 21.3473 24.0245 21.1597C24.9675 20.9721 25.8336 20.5091 26.5135 19.8293C27.1934 19.1494 27.6563 18.2832 27.8439 17.3402C28.0315 16.3972 27.9352 15.4198 27.5673 14.5315C27.1994 13.6433 26.5763 12.884 25.7768 12.3499Z" fill="black"/>
<path fill-rule="evenodd" clip-rule="evenodd" d="M8.5 9C8.5 8.30964 9.05964 7.75 9.75 7.75H13.75C14.4404 7.75 15 8.30964 15 9C15 9.69036 14.4404 10.25 13.75 10.25H9.75C9.05964 10.25 8.5 9.69036 8.5 9Z" fill="black"/>
<rect x="33" y="24" width="9" height="2" rx="1" fill="black"/>
<rect x="-0.5" y="0.5" width="8" height="1" rx="0.5" transform="matrix(-1 0 0 1 42 30)" fill="black" stroke="black"/>
<path d="M49.5 28C49.5 33.1834 44.643 37.5 38.5 37.5C32.357 37.5 27.5 33.1834 27.5 28C27.5 22.8166 32.357 18.5 38.5 18.5C44.643 18.5 49.5 22.8166 49.5 28Z" stroke="black"/>
<line x1="33.0331" y1="31.3124" x2="35.1544" y2="33.4337" stroke="black" stroke-width="2" stroke-linecap="round" stroke-linejoin="round"/>
<line x1="33" y1="31.1213" x2="35.1213" y2="29" stroke="black" stroke-width="2" stroke-linecap="round" stroke-linejoin="round"/>
<line x1="42.1214" y1="24.5355" x2="40.0001" y2="22.4142" stroke="black" stroke-width="2" stroke-linecap="round" stroke-linejoin="round"/>
<line x1="42.5356" y1="25.4142" x2="40.4143" y2="27.5355" stroke="black" stroke-width="2" stroke-linecap="round" stroke-linejoin="round"/>
</svg>
